<svg width="625" height="578" viewBox="0 0 625 578" fill="none" xmlns="http://www.w3.org/2000/svg">
<path d="M42.9238 481.629C36.5819 478.671 23.9017 472.757 22.2089 468.12C20.7694 464.178 21.0663 459.492 23.2728 455.458C23.96 454.202 25.5236 453.844 26.8132 454.472C35.1508 458.534 65.3232 472.982 84.1532 478.705C105.705 485.256 177.181 505.272 189.806 508.804C190.875 509.103 191.474 510.207 191.171 511.273L186.796 526.695C186.353 528.257 184.797 529.191 183.225 528.777C167.727 524.704 90.8622 503.99 42.926 481.63L42.9238 481.629Z" fill="#4F4F4F" stroke="#333333" stroke-width="2"/>
<path d="M31.9305 446.345C27.283 448.024 25.0001 454.5 25.0001 454.5C25.0001 454.5 58.0297 470.765 80.3659 477.554C108.771 486.188 190.5 509.5 190.5 509.5C190.5 509.5 195.817 492.372 198.14 481.408C200.463 470.445 202.667 452.902 202.667 452.902L162.953 420.223C162.953 420.223 160.521 412.27 155.492 410.742C152.651 409.878 133.633 423.676 128.814 430.454C127.007 432.997 123.538 432.714 98.1755 442.781C86.4134 447.449 39.4243 443.638 31.9305 446.345Z" fill="#E3C68D" stroke="#333333" stroke-width="2"/>
<path d="M155.83 439.058C160.536 432.052 161.674 430.835 166.484 425.688C166.715 425.441 166.955 425.184 167.203 424.918L201.598 453.316L198.218 476.981C197.981 476.847 197.715 476.698 197.427 476.538C196.176 475.841 194.488 474.921 192.748 474.034C191.014 473.15 189.205 472.286 187.718 471.71C186.978 471.424 186.282 471.194 185.696 471.074C185.405 471.015 185.104 470.974 184.82 470.981C184.555 470.987 184.181 471.036 183.85 471.268C183.149 471.76 182.73 472.43 182.447 473.063C182.231 473.548 182.067 474.08 181.931 474.525C181.895 474.639 181.862 474.749 181.83 474.849C181.653 475.402 181.51 475.739 181.344 475.945C181.233 476.082 181.111 476.171 180.81 476.171C179.666 476.171 178.287 476.315 176.803 476.488C176.513 476.522 176.218 476.557 175.919 476.592C174.666 476.741 173.332 476.899 171.937 477.017C168.48 477.311 164.773 477.347 161.368 476.399C161.369 476.4 161.338 476.391 161.272 476.353C161.207 476.317 161.123 476.262 161.019 476.183C160.81 476.025 160.555 475.795 160.257 475.491C159.663 474.883 158.955 474.035 158.175 473.003C156.619 470.942 154.832 468.222 153.181 465.408C151.529 462.593 150.029 459.713 149.036 457.335C148.539 456.143 148.18 455.106 147.989 454.281C147.894 453.869 147.845 453.533 147.836 453.272C147.826 453.001 147.86 452.871 147.876 452.832C148.162 452.134 148.828 451.613 149.911 451.2C150.925 450.813 152.124 450.588 153.352 450.358C153.437 450.342 153.522 450.326 153.607 450.31C154.246 450.19 154.892 450.064 155.475 449.907C156.05 449.753 156.631 449.554 157.113 449.259C157.606 448.958 158.074 448.509 158.265 447.839C158.454 447.179 158.316 446.497 158.013 445.845C157.786 445.358 157.377 445.078 157.057 444.911C156.732 444.742 156.359 444.619 156.045 444.52C155.988 444.501 155.931 444.484 155.876 444.466C155.25 444.269 154.777 444.12 154.431 443.869C154.27 443.752 154.173 443.634 154.115 443.507C154.057 443.381 154.007 443.177 154.043 442.84C154.118 442.123 154.565 440.941 155.83 439.058ZM62.5136 458.602L62.5136 458.603C62.5136 458.603 62.5136 458.603 62.5136 458.603L62.5136 458.602C62.5135 458.602 62.5134 458.602 62.5133 458.602C61.6178 457.433 58.992 454.008 57.6206 452.266C57.2882 451.843 56.7673 451.531 56.2678 451.29C55.738 451.035 55.0951 450.798 54.3939 450.578C52.989 450.137 51.254 449.734 49.5106 449.385C46.0206 448.687 42.398 448.183 41.0905 448.009C41.09 448.009 41.0894 448.008 41.0888 448.007L40.1382 446.234L67.6937 446.102L70.1934 458.406L62.5136 458.602Z" fill="#828282" stroke="#333333" stroke-width="2"/>
<path d="M95.6571 455.193L107.614 480.395C107.708 480.595 107.923 480.709 108.142 480.675L119.312 478.95C119.643 478.899 119.831 478.543 119.688 478.241L113.773 465.775C113.773 465.775 117.818 468.54 120.427 467.797C123.154 467.02 125.034 462.205 125.034 462.205L132.007 476.61C132.107 476.817 132.335 476.929 132.56 476.882L142.406 474.808C142.729 474.74 142.898 474.383 142.747 474.089L129.501 448.486C129.392 448.275 129.15 448.17 128.921 448.234L120.138 450.714C119.922 450.775 119.773 450.972 119.765 451.196C119.718 452.487 119.414 456.738 117.439 458.498C113.715 461.817 105.965 454.578 104.698 453.348C104.583 453.236 104.427 453.188 104.269 453.212L96.0325 454.485C95.7018 454.536 95.5136 454.891 95.6571 455.193Z" fill="#E49143" stroke="#333333" stroke-width="2"/>
<path d="M75.1468 445.935L75.8936 450.284M82.348 446.063L83.3816 449.469M92.0164 444.88C92.0164 444.88 94.3217 445.923 95.517 446.975C96.5623 447.895 97.7841 449.725 97.7841 449.725M102.258 441.811C102.258 441.811 104.852 443.285 106.089 444.521C107.055 445.485 108.686 447.886 108.686 447.886M119.875 445.104L114.967 437.43M130.49 444.209C128.035 440.573 126.248 438.46 122.082 434.441M141.765 444.545C136.553 439.351 133.769 436.531 125.382 433.497M148.993 434.377C142.939 430.476 135.737 430.348 130.716 429.852C135.737 430.348 135.537 434.409 138.838 440.564" stroke="#333333" stroke-width="2" stroke-linecap="round" stroke-linejoin="round"/>
<path d="M157.341 426.76C156.947 428.057 155.57 428.79 154.264 428.393C152.958 427.996 152.222 426.621 152.617 425.324C153.011 424.027 154.387 423.293 155.693 423.69C157 424.087 157.735 425.463 157.341 426.76Z" fill="#333333" stroke="#333333"/>
<path d="M425.488 529.125C420.343 529.195 413.824 529.226 411.281 529C407.466 528.66 401.567 524.526 400.547 519.589C400.245 518.127 401.596 517.025 403.092 517.045C408.895 517.123 422.527 517.175 424.487 516C426.861 514.575 502.396 428.7 510.014 420.036C510.383 419.616 510.971 419.639 511.385 420.012L522.49 430.03C523.674 431.097 523.843 432.863 522.828 434.094C513.946 444.86 473.307 493.429 437.799 524.459C434.385 527.442 430.021 529.064 425.488 529.125Z" fill="#4F4F4F" stroke="#333333" stroke-width="2"/>
<path d="M402.487 511C402.074 515.471 402.5 517.5 402.5 517.5C402.5 517.5 423.328 517.865 425.487 515.5C435.987 504.001 510.5 420.5 510.5 420.5C510.5 420.5 498.259 409.413 490.138 403.27C482.017 397.126 468.439 388.54 468.439 388.54L426.225 408.588C426.225 408.588 418.745 407.518 415.546 411.065C413.74 413.068 417.745 434.038 421.46 440.619C422.854 443.087 426.006 475.021 415.546 497.5C412.987 503 403.154 503.791 402.487 511Z" fill="#E3C68D" stroke="#333333" stroke-width="2"/>
<path d="M404.955 508.151C405.619 508.232 406.528 508.072 406.751 508.027L404.955 508.151ZM404.955 508.151C404.89 508.143 404.836 508.134 404.793 508.125M404.955 508.151L404.793 508.125M404.793 508.125C404.811 508.084 404.834 508.036 404.865 507.979C406.218 505.499 408.245 504.239 410.258 503.202C410.525 503.064 410.799 502.927 411.075 502.79C411.802 502.426 412.535 502.059 413.162 501.671C414.046 501.124 414.886 500.44 415.382 499.448C416.451 497.309 418.26 493.193 419.23 490.96C419.427 490.507 419.92 490.264 420.397 490.384L427.01 492.037C427.515 492.163 427.783 492.619 427.691 493.051C427.436 494.26 427.01 495.94 426.361 497.585C425.704 499.247 424.856 500.778 423.801 501.772C421.592 503.855 420.067 504.536 417.157 505.556C413.407 506.87 407.415 507.912 406.858 508.007C406.816 508.015 406.782 508.021 406.751 508.027L404.793 508.125ZM441.444 422.875C440.111 423.143 438.937 422.704 437.833 421.688C436.702 420.646 435.708 419.043 434.859 417.166C433.167 413.423 432.197 408.918 431.782 406.646C431.71 406.253 431.913 405.847 432.316 405.656L467.807 388.872C468.131 388.718 468.513 388.751 468.807 388.956L484.218 399.735C484.56 399.974 484.719 400.389 484.643 400.863C484.565 401.345 484.261 401.756 483.826 401.926C482.07 402.613 480.05 403.583 478.528 404.858C477.014 406.126 475.801 407.872 476.181 410.056C476.316 410.834 476.697 411.444 477.104 411.927C477.416 412.299 477.789 412.643 478.095 412.926C478.168 412.994 478.238 413.058 478.302 413.119C478.676 413.471 478.891 413.712 478.999 413.928C479.076 414.081 479.105 414.225 479.014 414.474C478.307 416.394 477.704 418.329 477.147 420.147C477.088 420.339 477.029 420.531 476.971 420.72C476.479 422.33 476.021 423.825 475.547 425.153C475.015 426.644 474.486 427.853 473.91 428.724C473.331 429.6 472.787 430.01 472.269 430.133C463.84 432.134 454.458 432.991 446.658 432.133C446.379 432.102 446.326 432.02 446.306 431.99L446.305 431.988C446.253 431.907 446.18 431.705 446.189 431.279C446.209 430.411 446.541 429.225 446.934 427.867L446.973 427.733C447.328 426.506 447.73 425.12 447.753 424.026C447.765 423.454 447.682 422.778 447.267 422.23C446.813 421.628 446.124 421.388 445.384 421.385C444.313 421.381 443.565 421.794 442.982 422.146C442.923 422.182 442.866 422.217 442.811 422.25C442.308 422.556 441.95 422.774 441.444 422.875ZM404.736 508.302C404.735 508.303 404.735 508.296 404.738 508.282C404.738 508.295 404.737 508.302 404.736 508.302Z" fill="#828282" stroke="#333333" stroke-width="2"/>
<path d="M429.068 477.443L454.318 477.339C454.54 477.338 454.734 477.192 454.796 476.98L457.663 467.217C457.757 466.896 457.516 466.575 457.181 466.576L444.705 466.627C444.705 466.627 448.541 464.368 448.937 461.936C449.351 459.393 446.116 455.987 446.116 455.987L460.621 455.814C460.851 455.811 461.049 455.652 461.102 455.428L463.176 446.623C463.252 446.301 463 445.996 462.67 446.009L436.594 447.014C436.356 447.023 436.158 447.198 436.12 447.432L434.78 455.543C434.743 455.764 434.856 455.982 435.055 456.085C436.132 456.642 439.456 458.52 440.135 460.803C441.42 465.125 432.572 468.69 431.003 469.285C430.853 469.342 430.741 469.464 430.695 469.617L428.586 476.802C428.492 477.123 428.733 477.444 429.068 477.443Z" fill="#E49143" stroke="#333333" stroke-width="2"/>
<path d="M422.08 483.983L426.07 483.548M422.87 479.583L427.07 478.548M423.57 473.548C423.57 473.548 427.315 473.125 428.642 472.548M424.362 466.988C424.362 466.988 426.577 466.088 428.07 465.548C429.237 465.126 431.841 464.046 431.841 464.046M432.569 457.474L424.362 458.548M435.644 447.903C431.705 448.519 430.25 448.512 424.362 451.048M438.666 436.384C432.381 438.666 428.363 440.411 422.629 446.138M433.093 426.514C427.547 429.987 424.661 435.861 422.315 439.799C424.661 435.861 427.924 437.593 434.261 437.255" stroke="#333333" stroke-width="2" stroke-linecap="round" stroke-linejoin="round"/>
<path d="M435.917 415.762C436.813 416.57 436.883 417.957 436.069 418.859C435.255 419.762 433.869 419.834 432.973 419.026C432.077 418.218 432.007 416.832 432.821 415.929C433.635 415.026 435.021 414.954 435.917 415.762Z" fill="#333333" stroke="#333333"/>
<path d="M326.5 215L279 191C279 191 258 241.5 226.5 286C201.089 321.899 120 391.5 134.579 407.5C135.694 408.723 138 410 138 410C138 410 126.125 416.143 129.5 420C133 424 151.051 434.888 166.5 441C184.343 448.058 210.5 455.5 214.5 451.5C218.5 447.5 215.5 440 215.5 440C215.5 440 218.225 440.703 220 441C235 443.509 233.915 393.842 243 357.5C261.5 283.5 292.5 238 292.5 238C292.5 238 269.697 288.5 292.5 330C326.693 392.228 372 443.5 394 434C402 430.545 406.5 424 406.5 424C406.5 424 404 440 412 438C420.374 435.907 438.5 422 448.5 411.5C465.312 393.848 466.525 390.925 469 383.5C474 368.5 451.5 372 451.5 372C451.5 372 460.191 363.633 460 359.5C458.731 332 333.101 358.209 319 291.5C315.732 276.038 317.741 256.473 320.498 241C323.152 226.104 326.5 215 326.5 215Z" fill="#BDBDBD" stroke="#333333" stroke-width="2" stroke-linejoin="round"/>
<path d="M290.5 112.5C294.5 118.5 344.5 79.5 344.5 79.5L338 103.5C338 103.5 285.5 148 277 142.5C264.604 134.479 276.5 73.5 276.5 73.5H290.5C290.5 73.5 286.8 106.95 290.5 112.5Z" fill="#E3C68D" stroke="#333333" stroke-width="2"/>
<path d="M296.5 208C286.76 203.262 277 196 274 192C272.733 190.31 276.445 189.538 277 187.5C277.975 183.926 274.501 182.171 274 178.5C272.5 167.5 346 69 354.5 66.4999C365.681 63.2117 378 66.5002 384 70.9999C389.685 75.2633 383.466 128.078 374 149.5C364.5 171 348.5 209 341 211.5C337.11 212.797 332.403 207.868 330.5 211.5C329.504 213.403 332.645 216.893 330.5 217C320.5 217.5 308.729 213.948 296.5 208Z" fill="#E3C68D" stroke="#333333" stroke-width="2"/>
<path d="M378.504 123.241C387.016 105.668 392.004 85.2407 386.504 79.7407C378.466 71.7029 366.094 74.7959 357.504 82.2407C350.004 88.7407 346.117 99.2331 339.004 110.241C330.242 123.8 320.005 145.241 317.004 145.241C312.004 145.241 309.504 96.7407 302.004 94.2407C300.152 93.6232 299.004 95.4907 297.504 94.2407C295.704 92.7406 301.847 88.7407 299.504 88.7407C295.004 88.7407 284.504 89.7407 279.504 94.2407C277.289 96.2346 283.004 95.2407 284.504 96.7407C285.814 98.0505 281.475 100.163 280.504 101.741C276.504 108.241 303.004 175.241 314.004 177.741C324.716 180.175 363.004 155.241 378.504 123.241Z" fill="#E3C68D" stroke="#333333" stroke-width="2"/>
<path d="M360.237 65.5003C360.237 65.5003 363.847 59.7206 362.236 56.5003C361.236 54.5003 359.236 53.5003 358.236 51.0003C357.499 49.1573 357.432 47.0203 357.515 45.5C357.467 44.8979 357.531 44.3402 357.682 43.8269C357.714 43.6171 357.736 43.5003 357.736 43.5003C357.736 43.5003 349.625 43.7022 348.236 40.0003C346.425 35.1702 355.521 39.0344 358.737 35.0003C362.367 30.445 361.152 24.8387 362.237 20.5003C363.236 16.5 367.01 13.0557 371.737 13.0003C379.026 12.9148 382 28.5 382 28.5C382 28.5 385.366 26.5927 388.737 29.0003C392.709 31.8377 391.267 37.3261 388.737 41.5003C385.878 46.214 386.5 44 383 50.5C379.5 57 377.771 58.272 378.237 68.5C372.574 66.5873 366.708 65.0718 360.237 65.5003Z" fill="#FFFF26"/>
<path d="M382 28.5C382 28.5 379.026 12.9148 371.737 13.0003C367.01 13.0557 363.236 16.5 362.237 20.5003C361.152 24.8387 362.367 30.445 358.737 35.0003C355.521 39.0344 346.425 35.1702 348.236 40.0003C349.625 43.7022 357.736 43.5003 357.736 43.5003C357.736 43.5003 356.923 47.7168 358.236 51.0003C359.236 53.5003 361.236 54.5003 362.236 56.5003C363.847 59.7206 360.237 65.5003 360.237 65.5003C366.708 65.0718 372.574 66.5873 378.237 68.5C377.771 58.272 379.5 57 383 50.5C386.5 44 385.878 46.214 388.737 41.5003C391.267 37.3261 392.709 31.8377 388.737 29.0003C385.366 26.5927 382 28.5 382 28.5ZM382 28.5C378.66 30.1527 377.5 31 376 33M375.236 40.5C377.006 35.0306 380.236 32.5 384.736 31.5M357.515 45.5C357.236 42 360.736 40 363.236 39.5" stroke="#333333" stroke-width="2" stroke-linecap="round"/>
<path d="M279.381 80.4576C279.381 80.4576 277.43 74.8551 275.695 71.8562C274.345 69.5249 270.776 65.1927 267.264 64.0739C263.407 62.8451 258.918 62.2184 256.034 61.6163C251.734 60.7187 249.071 60.7971 247.432 60.3875C245.792 59.9774 246.274 57.5635 246.613 56.5455C247.023 55.3168 256.876 57.9122 261.003 58.3687C263.72 58.6692 267.557 60.0073 267.557 60.0073C267.557 60.0073 263.945 57.3782 261.003 56.5454C257.317 55.5015 246.613 54.8772 244.975 53.8338C243.336 52.7903 242.108 50.5574 243.336 49.3284C245.187 47.4775 260.123 52.2887 265.414 54.0715C259.726 52.1093 242.857 46.1845 242.517 44.8228C242.125 43.2548 242.517 42.3652 244.155 42.3652C245.158 42.3652 272.486 53.2955 272.486 53.2955C272.486 53.2955 250.589 42.2201 251.528 39.9078C252.313 37.9769 251.901 37.0404 253.986 37.0405L274.056 50.557C274.056 50.557 275.86 48.5057 274.056 46.0516C272.328 43.7002 268.09 41.9556 267.912 39.9076C267.826 38.913 269.551 38.2692 269.551 38.2692C270.918 36.8951 275.933 41.8342 278.562 45.642C283.459 52.7367 280.982 56.1024 285.115 64.4835C285.818 65.9091 286.754 70.6273 286.754 70.6273L290.44 80.4576L279.381 80.4576Z" fill="#FFFF26" stroke="#333333" stroke-width="2"/>
<path d="M157.354 20C169.551 19.9997 175.639 30.0793 186.679 34.5003C196.647 38.4921 210.138 38.5002 210.138 38.5002C210.138 38.5002 280.517 39.5 311.015 42.5002C321.072 43.4896 330.117 47.4545 331.542 56C333.876 70 322.5 73.5 319 73.5H259V70.5L318.053 71C321.5 71 330.83 67.5 328.023 56C326.262 48.7862 317.884 46.4228 309.255 46C258.231 43.5 211.898 49 211.898 49C202.463 50.3406 197.236 52.5 188.438 57.5C176.584 64.2371 171.599 74.8221 157.354 74.9999C146.797 75.1316 138 61.3312 138 45.9997C138 30.6682 146.797 20.0003 157.354 20Z" fill="#E49143" stroke="#333333" stroke-width="2"/>
<path d="M358.521 56.5001C360.28 56.8499 356.761 43.1668 355.002 43.5001C349.723 44.5001 350.896 48.5001 350.896 48.5001C350.896 48.5001 346.948 47.8663 346.204 48.5001C345.461 49.134 345.127 51.2368 346.204 52.5001C346.669 53.0453 352.656 52.5001 352.656 52.5001C352.656 52.5001 355.664 55.9323 358.521 56.5001Z" fill="#E49143" stroke="#333333" stroke-width="2"/>
<path d="M218.349 49.5C236.531 49.5003 346.791 49.5 346.791 49.5V52C346.791 52 240.049 51.9997 219.522 52.5C216.728 52.5681 214.244 53.6165 214.244 56V67.5C214.244 68.4873 216.5 70.5 219.522 70.5L257.058 70.5V73H217.176C214.83 73 210.138 70.3161 210.138 67.5V53.5C210.138 50.1406 214.656 49.4999 218.349 49.5Z" fill="#E49143" stroke="#333333" stroke-width="2"/>
<path d="M262.496 81H258.581L255.78 38.5H256.644C257.749 38.5 258.644 37.6046 258.644 36.5V36C258.644 34.8954 257.749 34 256.644 34H260.99C259.886 34 258.99 34.8954 258.99 36V36.5C258.99 37.6046 259.886 38.5 260.99 38.5L261.936 38.5L262.496 81Z" fill="#E49143" stroke="#333333" stroke-width="2"/>
<path d="M274.226 81H270.31L267.51 38.5L268.96 38.5C269.825 38.5 270.561 37.952 270.84 37.1847C271.12 37.952 271.856 38.5 272.72 38.5L273.665 38.5L274.226 81ZM270.84 35.3153C270.561 34.548 269.825 34 268.96 34H272.72C271.856 34 271.12 34.548 270.84 35.3153Z" fill="#E49143" stroke="#333333" stroke-width="2"/>
<path d="M287.128 81H283.213L280.412 38.5L281.863 38.5C282.727 38.5 283.463 37.952 283.743 37.1847C284.023 37.952 284.759 38.5 285.623 38.5L286.568 38.5L287.128 81ZM283.743 35.3153C283.463 34.548 282.727 34 281.863 34H285.623C284.759 34 284.023 34.548 283.743 35.3153Z" fill="#E49143" stroke="#333333" stroke-width="2"/>
<path d="M179.054 47C179.054 54.4558 177.786 60.5 172.603 60.5C167.421 60.5 163.219 54.4558 163.219 47C163.219 39.5442 167.421 33.5 172.603 33.5C177.786 33.5 179.054 39.5442 179.054 47Z" fill="#333333"/>
<path d="M137 420.5C141.057 418.695 142.898 417.338 145 414" stroke="#333333" stroke-width="2" stroke-linecap="round"/>
<path d="M143 425.5C147.057 423.695 149.898 421.338 152 418M150.5 429C153.5 427.5 155.5 425.5 158.5 422.5M158.5 433.5C160.5 431 163.5 428.5 166.5 427M169.5 438.5C169.5 436 170 434 173 430.5M180.5 442.5C179.5 440 179.5 438 180.5 433.5M190.5 445C188.5 444 188.5 438.5 190.5 436M201.5 448C201 445 200.5 442 201.5 439M211 449.5C210.5 446.5 210.5 445.5 211 442.5" stroke="#333333" stroke-width="2" stroke-linecap="round"/>
<path d="M465.287 381.724C460.85 381.903 457.259 381.049 453.896 378.987M460.113 388.184C456.759 388.168 454.08 387.261 450.062 385.9M454.934 395.762C452.034 394.407 448.237 393.494 444.883 393.479M447.287 405.118C446.18 402.876 444.846 401.305 440.606 399.496M439.197 413.576C438.986 410.892 438.1 409.099 435.211 405.508M431.339 420.247C432.689 418.465 430.253 413.534 427.353 412.179M422.806 427.81C421.926 424.899 421.045 421.987 418.82 419.741M414.954 433.363C414.073 430.451 413.63 429.555 411.853 427.087" stroke="#333333" stroke-width="2" stroke-linecap="round"/>
<path d="M328.007 214.077C325.494 211.642 326.408 209.643 326.33 208.612M323.838 214.146C322.015 212.293 322.221 210.997 321.5 209.09M309.935 210.487C310.455 209.673 310.237 208.147 309.895 206.576M300.5 206.576C301.732 206.218 302.148 205.567 302.373 203.647M291.795 202.489C292.777 201.853 293.883 201.406 294.365 200.131M284.5 197.5C285.48 196.751 286.461 196.003 286.373 194.571M278.145 192.277C279.125 191.528 279.333 191.202 279.602 189.999M288.049 199.929C289.352 198.505 289.471 198.191 289.922 197M296.207 204.979C296.443 204.357 297.316 204.069 298.081 202.05M304.897 208.316C305.356 207.104 305.516 206.68 306 205.402M281.62 194.818C282.923 193.394 283.042 193.08 283.493 191.889M318 213C318.52 212.186 318.302 210.66 317.96 209.09M314.255 212.272C313.352 210.548 313.675 209.428 314 208" stroke="#333333" stroke-width="2" stroke-linecap="round"/>
<path d="M276.62 70.3198C275.183 74.2976 282 92.5 282 92.5C282 92.5 285.231 90.6482 287.5 90C291 89 294 89 294 89C294 89 290.445 82.511 290.873 78.4327C291.554 71.9534 300.5 71.0001 302.024 68.1185C304.004 64.3773 303 48.0001 297.021 39.3395C293.813 34.6913 287.5 28.5001 285.831 30.1774C285.831 30.1774 284.395 31.786 284.5 33.0001C284.717 35.5001 291.127 39.134 293.237 42.0043C295.44 45.0001 295.44 55.8355 295.44 55.8355L279.825 26.2232C277.281 26.2232 275.605 27.8203 274.647 30.1774C273.5 33.0001 287.017 51.3071 287.017 51.3071C287.017 51.3071 269.5 37.7405 268.276 37.7405C265.31 37.7405 263.249 40.468 263.249 43.4343C263.249 45.5 280.642 53.028 280.642 53.028C280.642 53.028 263.252 46.2476 260.5 48.9999C259 50.5001 257.5 52.7263 259.5 54C261.5 55.2737 268.5 54 273 55.2742C276.59 56.2909 281 59.5002 281 59.5002C281 59.5002 276.316 57.8668 273 57.5C267.961 56.9427 263.749 59.5003 263.249 61.0002C262.834 62.2429 262.729 63.1823 264 63.5002C266 64.0005 269.752 60.4045 275 61.5002C278.521 62.2352 279.085 63.3871 279.825 65.0002C280.565 66.6133 277.86 66.8867 276.62 70.3198Z" fill="#FFFF26" stroke="#333333" stroke-width="2" stroke-linejoin="round"/>
<path d="M370.414 21.5773C367.532 19.6964 361.392 16.8475 361.956 16.1964C363.563 14.3391 366.533 12.6687 367.381 12.1279C367.673 11.9412 368.202 12.4638 368.202 12.4638C368.202 12.4638 372.076 10.3863 374.061 8.86838C376.598 6.92825 379.841 4.47272 381.119 5.13485C382.678 5.94265 382.567 7.69467 382.87 9.51164C383.114 10.9798 383.073 12.4408 382.917 12.8223C381.92 15.2619 380.904 16.2146 380.061 16.8317C379.553 17.2043 380.434 17.7237 380.741 18.1451C381.048 18.5665 380.419 18.9971 380.725 19.3586C380.94 19.6134 381.331 19.5449 381.361 19.8775C381.448 20.8375 381.686 24.0415 381.813 25.5355C381.992 27.6392 374.456 24.2157 370.414 21.5773Z" fill="#E1A05E"/>
<path d="M361.956 16.1964L362.712 16.8509L362.712 16.8509L361.956 16.1964ZM370.414 21.5773L370.96 20.7399L370.414 21.5773ZM381.813 25.5355L382.81 25.451L381.813 25.5355ZM381.361 19.8775L380.365 19.9677L380.365 19.9677L381.361 19.8775ZM380.725 19.3586L379.96 20.0037L379.96 20.0037L380.725 19.3586ZM380.061 16.8317L380.652 17.6384L380.652 17.6384L380.061 16.8317ZM374.061 8.86838L374.668 9.66275L374.061 8.86838ZM367.381 12.1279L367.918 12.9711L367.381 12.1279ZM382.87 9.51164L381.883 9.67586L381.883 9.67586L382.87 9.51164ZM375.129 10.0715C374.616 10.2766 374.366 10.8586 374.572 11.3714C374.777 11.8842 375.359 12.1336 375.871 11.9285L375.129 10.0715ZM371.257 15.9701C371.793 16.1041 372.336 15.7783 372.47 15.2425C372.604 14.7067 372.278 14.1638 371.743 14.0299L371.257 15.9701ZM377.5 19.8775C377.5 19.3252 377.052 18.8775 376.5 18.8775C375.948 18.8775 375.5 19.3252 375.5 19.8775L377.5 19.8775ZM361.2 15.542C360.915 15.871 360.875 16.2732 360.958 16.593C361.026 16.8584 361.171 17.0579 361.27 17.1765C361.475 17.4235 361.768 17.6565 362.052 17.8601C362.642 18.2835 363.49 18.7832 364.401 19.2968C366.276 20.3534 368.462 21.4977 369.867 22.4147L370.96 20.7399C369.483 19.7761 367.159 18.5554 365.384 17.5546C364.47 17.0395 363.709 16.5873 363.217 16.2346C362.96 16.0502 362.842 15.9391 362.808 15.8983C362.787 15.873 362.856 15.9427 362.895 16.0939C362.948 16.2996 362.926 16.6032 362.712 16.8509L361.2 15.542ZM369.867 22.4147C371.942 23.7693 374.898 25.3172 377.333 26.2664C378.533 26.7343 379.694 27.0921 380.587 27.1716C381.011 27.2094 381.545 27.2028 382.002 26.9645C382.255 26.8327 382.493 26.6252 382.648 26.3254C382.799 26.0315 382.833 25.7241 382.81 25.451L380.817 25.62C380.816 25.6099 380.811 25.5222 380.87 25.408C380.932 25.2879 381.022 25.2199 381.078 25.1908C381.142 25.1575 381.085 25.2081 380.765 25.1795C380.168 25.1264 379.226 24.8578 378.059 24.403C375.76 23.5068 372.927 22.0237 370.96 20.7399L369.867 22.4147ZM382.81 25.451C382.686 23.9893 382.443 20.7405 382.357 19.7874L380.365 19.9677C380.452 20.9346 380.687 24.0936 380.817 25.62L382.81 25.451ZM382.357 19.7874C382.329 19.4811 382.203 19.2021 381.987 18.9856C381.803 18.8017 381.599 18.7103 381.514 18.6731C381.474 18.6557 381.412 18.6303 381.4 18.6253C381.374 18.6144 381.367 18.6108 381.367 18.6109C381.371 18.6126 381.429 18.6426 381.489 18.7135L379.96 20.0037C380.128 20.202 380.315 20.319 380.454 20.3899C380.521 20.4246 380.583 20.4512 380.625 20.4688C380.681 20.4924 380.686 20.4939 380.71 20.5047C380.726 20.5113 380.714 20.5073 380.693 20.4943C380.669 20.4805 380.623 20.4502 380.571 20.3983C380.516 20.3436 380.464 20.273 380.425 20.1876C380.386 20.1032 380.37 20.0261 380.365 19.9677L382.357 19.7874ZM381.489 18.7135C381.54 18.7749 381.589 18.8594 381.616 18.9619C381.643 19.0605 381.641 19.1421 381.635 19.1901C381.628 19.2489 381.609 19.28 381.664 19.1399C381.697 19.0579 381.792 18.8282 381.82 18.5657C381.853 18.2513 381.792 17.8896 381.549 17.5562L379.933 18.7341C379.844 18.6113 379.82 18.4615 379.831 18.3576C379.836 18.3057 379.851 18.2852 379.803 18.4087C379.777 18.4741 379.677 18.707 379.648 18.9614C379.611 19.2849 379.677 19.6682 379.96 20.0037L381.489 18.7135ZM381.549 17.5562C381.413 17.3689 381.236 17.1986 381.128 17.095C380.993 16.964 380.914 16.8895 380.857 16.8216C380.831 16.792 380.83 16.7864 380.839 16.8015C380.847 16.8149 380.883 16.8804 380.899 16.9887C380.917 17.1109 380.904 17.2605 380.836 17.4054C380.772 17.5408 380.687 17.6129 380.652 17.6384L379.47 16.025C379.308 16.1436 379.14 16.3134 379.028 16.5502C378.911 16.7965 378.887 17.0511 378.921 17.281C378.98 17.6833 379.215 17.9788 379.334 18.1186C379.472 18.2798 379.639 18.4375 379.739 18.534C379.868 18.658 379.916 18.7106 379.933 18.7341L381.549 17.5562ZM380.652 17.6384C381.644 16.9117 382.776 15.8105 383.843 13.2008L381.992 12.4439C381.064 14.7134 380.163 15.5176 379.47 16.025L380.652 17.6384ZM381.579 4.24692C380.893 3.8914 380.119 4.02498 379.529 4.21358C378.898 4.41539 378.217 4.76595 377.547 5.16858C376.202 5.97637 374.712 7.11159 373.453 8.07402L374.668 9.66275C375.947 8.68505 377.346 7.62243 378.577 6.88295C379.194 6.51195 379.722 6.25152 380.138 6.11851C380.595 5.97229 380.706 6.04723 380.659 6.02277L381.579 4.24692ZM373.453 8.07402C372.515 8.79185 371.097 9.66392 369.883 10.3714C369.283 10.7215 368.743 11.025 368.354 11.2409C368.159 11.3487 368.002 11.4346 367.894 11.4933C367.84 11.5226 367.799 11.5452 367.771 11.5603C367.757 11.5678 367.746 11.5735 367.739 11.5772C367.736 11.5791 367.733 11.5805 367.732 11.5814C367.731 11.5818 367.73 11.5821 367.73 11.5823C367.73 11.5824 367.73 11.5825 367.73 11.5825C367.73 11.5826 367.73 11.5826 367.73 11.5826C367.73 11.5826 367.73 11.5825 368.202 12.4638C368.675 13.3451 368.675 13.345 368.675 13.345C368.675 13.345 368.675 13.3449 368.675 13.3449C368.675 13.3448 368.676 13.3447 368.676 13.3445C368.676 13.3442 368.677 13.3438 368.678 13.3432C368.68 13.3421 368.683 13.3405 368.687 13.3384C368.695 13.3341 368.707 13.328 368.721 13.3199C368.751 13.3039 368.795 13.2803 368.851 13.2499C368.962 13.189 369.124 13.1007 369.323 12.9901C369.722 12.769 370.275 12.4583 370.891 12.0993C372.11 11.3885 373.622 10.4629 374.668 9.66275L373.453 8.07402ZM368.202 12.4638C368.905 11.7526 368.905 11.7524 368.905 11.7522C368.905 11.7522 368.905 11.752 368.904 11.7519C368.904 11.7517 368.904 11.7515 368.904 11.7512C368.903 11.7507 368.903 11.7502 368.902 11.7496C368.901 11.7485 368.9 11.7473 368.898 11.7459C368.896 11.7432 368.892 11.7399 368.888 11.7362C368.88 11.7287 368.871 11.7192 368.859 11.7082C368.835 11.6861 368.802 11.6569 368.763 11.6235C368.687 11.5588 368.574 11.4684 368.438 11.382C368.311 11.3011 368.114 11.1913 367.876 11.1316C367.636 11.0717 367.234 11.0356 366.843 11.2848L367.918 12.9711C367.674 13.1269 367.447 13.0861 367.39 13.0717C367.333 13.0575 367.323 13.0433 367.365 13.0697C367.398 13.0906 367.435 13.1192 367.467 13.1466C367.482 13.1593 367.493 13.1695 367.499 13.1753C367.502 13.1781 367.504 13.1797 367.504 13.1798C367.504 13.1798 367.504 13.1795 367.503 13.1787C367.503 13.1783 367.502 13.1778 367.501 13.1772C367.501 13.1769 367.501 13.1766 367.5 13.1762C367.5 13.176 367.5 13.1758 367.5 13.1756C367.5 13.1755 367.5 13.1754 367.5 13.1753C367.499 13.1752 367.499 13.175 368.202 12.4638ZM366.843 11.2848C366.474 11.5204 365.449 12.1178 364.389 12.843C363.319 13.5741 362.089 14.5141 361.2 15.542L362.712 16.8509C363.43 16.0214 364.488 15.1975 365.517 14.494C366.555 13.7844 367.44 13.2763 367.918 12.9711L366.843 11.2848ZM383.843 13.2008C383.94 12.9644 383.982 12.6798 384.005 12.4527C384.031 12.1965 384.044 11.8965 384.044 11.573C384.043 10.926 383.988 10.1391 383.856 9.34742L381.883 9.67586C381.996 10.3524 382.043 11.0301 382.044 11.576C382.044 11.849 382.033 12.0775 382.015 12.2484C381.995 12.4484 381.973 12.4895 381.992 12.4439L383.843 13.2008ZM383.856 9.34742C383.784 8.91618 383.739 8.5035 383.679 8.04526C383.622 7.60671 383.552 7.13695 383.432 6.68633C383.182 5.75177 382.689 4.82225 381.579 4.24692L380.659 6.02277C381.108 6.25524 381.34 6.60564 381.5 7.20328C381.584 7.51876 381.641 7.87818 381.696 8.3044C381.749 8.71094 381.804 9.19862 381.883 9.67586L383.856 9.34742ZM380.215 4.70601C378.786 7.71784 377.328 9.19166 375.129 10.0715L375.871 11.9285C378.672 10.8083 380.447 8.88258 382.022 5.56368L380.215 4.70601ZM367.241 12.74C367.669 14.2285 369.038 15.4153 371.257 15.9701L371.743 14.0299C369.962 13.5847 369.331 12.7715 369.163 12.1876L367.241 12.74ZM375.924 24.3815C376.414 23.1941 376.733 22.6926 377.027 22.0773C377.341 21.4213 377.5 20.849 377.5 19.8775L375.5 19.8775C375.5 20.5474 375.409 20.8251 375.223 21.2142C375.017 21.6441 374.586 22.3832 374.076 23.6185L375.924 24.3815Z" fill="#333333"/>
<circle cx="362" cy="32" r="2" fill="#333333"/>
<path d="M267.5 273.5C254 301 252.5 307 242 340" stroke="#333333" stroke-width="2" stroke-linecap="round"/>
<path d="M285 94C285.617 94.4044 286.108 94.7571 286.5 95.0871C287.45 95.8868 287.821 96.5534 288 97.5" stroke="#333333" stroke-width="2" stroke-linecap="round"/>
<path d="M294.122 92C293.971 92.7221 293.874 93.3186 293.83 93.8293C293.723 95.0668 293.932 95.8004 294.475 96.5962" stroke="#333333" stroke-width="2" stroke-linecap="round"/>
<path d="M291 97C291 95.5 290.5 93.5 289.5 92.5" stroke="#333333" stroke-width="2" stroke-linecap="round"/>
<path d="M88.0447 79C90.0703 52.9207 158 50 158 50C158 50 93.0447 59.1163 93.0447 77.5C93.0447 126 417.509 185 417.509 185C417.509 185 485.509 263.5 417.509 258.5C349.509 253.5 84.0448 130.5 88.0447 79Z" fill="#FFFF26" stroke="#333333" stroke-width="2" stroke-linejoin="round"/>
<path d="M567.544 153.883C567.721 153.771 567.894 153.66 568.063 153.552C567.995 153.67 567.926 153.79 567.857 153.913C566.333 156.596 564.398 160.323 562.763 164.483C561.131 168.637 559.781 173.267 559.46 177.746C559.139 182.226 559.842 186.641 562.416 190.262C564.979 193.867 569.118 196.287 573.745 197.917C578.384 199.551 583.619 200.427 588.509 200.875C593.405 201.324 597.992 201.348 601.353 201.259C601.472 201.256 601.59 201.253 601.706 201.25C601.648 201.278 601.591 201.308 601.532 201.337C598.627 202.802 594.749 204.925 590.869 207.551C586.995 210.173 583.082 213.323 580.139 216.851C577.201 220.373 575.153 224.365 575.198 228.648C575.243 232.925 577.371 236.981 580.375 240.602C583.387 244.233 587.36 247.526 591.288 250.292C595.221 253.062 599.143 255.329 602.079 256.902C602.13 256.93 602.181 256.957 602.232 256.984C602.155 256.979 602.078 256.974 602 256.969C598.637 256.755 594.048 256.607 589.159 256.872C584.276 257.138 579.055 257.819 574.443 259.281C569.846 260.739 565.737 263.012 563.234 266.544C560.721 270.09 560.115 274.493 560.53 278.98C560.946 283.47 562.393 288.148 564.112 292.361C565.834 296.581 567.847 300.378 569.427 303.118C569.475 303.201 569.522 303.283 569.569 303.364C569.434 303.273 569.296 303.182 569.155 303.089C566.397 301.263 562.549 298.892 558.196 296.717C553.848 294.543 548.965 292.549 544.143 291.498C539.33 290.449 534.483 290.32 530.274 291.989C526.051 293.663 522.916 296.969 520.591 300.876C518.266 304.783 516.712 309.352 515.668 313.675C514.623 318.004 514.08 322.127 513.798 325.164C513.781 325.35 513.765 325.532 513.749 325.709C513.663 325.511 513.572 325.307 513.479 325.098C512.202 322.237 510.315 318.39 507.877 314.456C505.442 310.527 502.439 306.48 498.921 303.242C495.405 300.006 491.321 297.529 486.73 296.846C482.14 296.164 477.512 297.346 473.207 299.419C468.899 301.493 464.849 304.491 461.376 307.542C457.899 310.596 454.974 313.728 452.92 316.093C452.77 316.266 452.624 316.435 452.483 316.6C452.52 316.426 452.557 316.247 452.595 316.064C453.209 313.077 453.889 308.974 454.149 304.528C454.408 300.089 454.25 295.265 453.162 290.851C452.074 286.436 450.037 282.361 446.484 279.53C442.942 276.709 438.268 275.423 433.358 275.026C428.438 274.629 423.186 275.116 418.394 275.931C413.597 276.746 409.225 277.895 406.055 278.838C405.893 278.886 405.735 278.934 405.579 278.981C405.648 278.917 405.717 278.853 405.787 278.787C408.095 276.626 411.126 273.578 414.001 270.042C416.872 266.511 419.617 262.457 421.321 258.282C423.024 254.11 423.725 249.721 422.353 245.597C420.985 241.489 417.716 238.12 413.741 235.387C409.754 232.647 404.957 230.476 400.363 228.802C395.763 227.125 391.329 225.932 388.048 225.158C387.973 225.14 387.897 225.123 387.823 225.105C387.879 225.094 387.936 225.083 387.993 225.071C391.259 224.42 395.671 223.392 400.24 221.886C404.803 220.382 409.562 218.389 413.5 215.791C417.427 213.2 420.643 209.938 421.931 205.86C423.22 201.775 422.422 197.359 420.636 193.136C418.846 188.904 416.019 184.752 413.076 181.116C410.128 177.475 407.035 174.315 404.681 172.068C404.634 172.023 404.587 171.979 404.541 171.935C404.651 171.972 404.762 172.009 404.875 172.047C408.065 173.109 412.461 174.421 417.276 175.416C422.085 176.41 427.348 177.094 432.262 176.881C437.163 176.668 441.826 175.557 445.328 172.853C448.844 170.138 450.801 166.118 451.797 161.738C452.793 157.359 452.848 152.538 452.495 148.088C452.142 143.632 451.375 139.504 450.698 136.493C450.667 136.356 450.636 136.221 450.606 136.089C450.735 136.241 450.869 136.397 451.006 136.556C453.109 138.997 456.099 142.236 459.638 145.419C463.173 148.598 467.282 151.744 471.628 153.976C475.967 156.205 480.616 157.561 485.196 157.05C489.784 156.538 493.83 154.206 497.289 151.091C500.748 147.977 503.671 144.034 506.026 140.19C508.384 136.343 510.193 132.562 511.411 129.746C511.498 129.544 511.582 129.347 511.663 129.156C511.685 129.362 511.709 129.575 511.733 129.794C512.079 132.842 512.709 136.986 513.846 141.353C514.981 145.715 516.631 150.338 519.034 154.325C521.437 158.311 524.629 161.719 528.87 163.544C533.103 165.365 537.945 165.421 542.746 164.55C547.553 163.679 552.4 161.864 556.707 159.851C561.019 157.836 564.821 155.607 567.544 153.883Z" fill="#FFFF26" stroke="#333333" stroke-width="2"/>
<path d="M555.597 165.197C561.873 166.145 566.238 168.97 566.238 168.97L484.863 206.064L400.358 236.871C400.358 236.871 404.113 223.024 412.251 218.638C437.916 204.806 456.844 203.436 484.863 192.232C510.092 182.144 528.744 161.142 555.597 165.197Z" fill="#FDE08B"/>
<path d="M405.322 214.364C397.084 222.602 400.312 237.539 400.312 237.539C400.312 237.539 405.322 223.039 416.595 218.124C441.021 207.475 457.407 205.795 482.983 195.576C508.811 185.255 542.494 165.931 549.998 165.514C561.271 164.888 564.403 170.526 565.655 169.274C566.908 168.021 566.907 167.393 566.907 167.393C566.907 167.393 565.666 158.002 546.866 158C533.088 157.999 505.832 176.543 478.599 187.436C450.52 198.668 419.726 199.96 405.322 214.364Z" fill="#FFB045" stroke="#333333" stroke-width="2"/>
<path d="M393.872 254.971C391.275 245.809 394.498 241.826 403.258 236.188C412.018 230.551 457.116 217.135 490.86 203.006C522.836 189.617 542.17 179.838 571.579 166.066C579.525 162.345 589.044 163.501 593.479 171.075C598.55 179.733 589.975 186.119 581.913 192.121L581.591 192.362C525.275 234.31 496.492 242.449 418.276 263.736C408.244 266.466 396.71 264.978 393.872 254.971Z" fill="#E49143"/>
<path d="M401.381 247.456L406.387 259.351M408.89 248.708L399.504 256.221M403.258 236.188C394.498 241.826 391.275 245.809 393.872 254.971C396.71 264.978 408.244 266.466 418.276 263.736C496.492 242.449 525.275 234.31 581.591 192.362C589.743 186.289 598.618 179.849 593.479 171.075C589.044 163.501 579.525 162.345 571.579 166.066C542.17 179.838 522.836 189.617 490.86 203.006C457.116 217.135 412.018 230.551 403.258 236.188Z" stroke="#333333" stroke-width="2" stroke-linecap="round"/>
<path d="M427.305 227.359C424.802 224.234 424.509 222.391 426.053 219.851C427.746 217.065 431.685 216.723 434.187 217.974C440.446 221.103 444.791 222.789 451.707 221.728C463.667 219.894 459.215 204.836 472.981 199.205C486.746 193.574 494.88 209.435 503.64 205.461C513.948 200.785 498.634 191.693 520.534 182.935C531.257 178.646 538.5 189.624 548.69 184.19C558.076 179.185 553.696 174.179 554.322 171.677C555.035 168.823 556.391 166.229 559.327 166.043C562.304 165.854 566.465 166.838 566.836 169.797C567.461 174.798 564.036 188.487 554.947 193.574C539.305 202.329 531.801 184.91 521.785 191.068C513.651 196.069 520.253 209.915 508.02 215.472C494.255 221.724 485.107 204.664 475.484 209.841C467.35 214.216 475.484 223.553 455.461 232.364C443.743 237.52 429.807 230.483 427.305 227.359Z" fill="#FFFF26" stroke="#333333" stroke-width="2"/>
<path d="M446.646 286.939C429.09 288.247 411.685 268.33 419.8 250.523C427.914 232.716 458.508 229.175 496.592 215.99C534.676 202.805 552.512 192.339 562.772 188.993C585.872 181.458 605.226 222.269 568.391 244.872C525.476 271.205 480.358 284.427 446.646 286.939Z" fill="#FFB045" stroke="#333333" stroke-width="2"/>
<path d="M450.889 265.584C450.889 265.584 446.089 263.989 444.885 266.558C443.542 269.42 448.945 270.886 448.945 270.886" stroke="#333333" stroke-width="2" stroke-linecap="round"/>
<path d="M521.587 220.278C521.587 220.278 516.788 218.683 515.583 221.252C514.241 224.114 519.644 225.579 519.644 225.579" stroke="#333333" stroke-width="2" stroke-linecap="round"/>
<path d="M482.822 256.379C482.822 256.379 486.639 258.445 488.187 256.08C489.911 253.446 485.549 251.44 485.549 251.44" stroke="#333333" stroke-width="2" stroke-linecap="round"/>
<path d="M449.189 247.336C449.189 247.336 453.006 249.402 454.554 247.037C456.279 244.402 451.916 242.397 451.916 242.397" stroke="#333333" stroke-width="2" stroke-linecap="round"/>
<path d="M534.19 247.343C534.19 247.343 534.781 251.877 537.611 251.777C540.763 251.666 539.8 246.701 539.8 246.701" stroke="#333333" stroke-width="2" stroke-linecap="round"/>
<path d="M479.294 231.945C479.294 231.945 479.885 236.478 482.715 236.379C485.867 236.268 484.904 231.302 484.904 231.302" stroke="#333333" stroke-width="2" stroke-linecap="round"/>
<path d="M514.929 241.249C514.929 241.249 513.475 244.963 516.032 246.158C518.881 247.489 520.193 243.28 520.193 243.28" stroke="#333333" stroke-width="2" stroke-linecap="round"/>
<path d="M502.402 260.027C502.402 260.027 500.866 264.005 503.415 265.227C506.255 266.587 507.657 262.083 507.657 262.083" stroke="#333333" stroke-width="2" stroke-linecap="round"/>
<path d="M547.563 203.453C547.563 203.453 546.028 207.432 548.577 208.653C551.416 210.014 552.819 205.51 552.819 205.51" stroke="#333333" stroke-width="2" stroke-linecap="round"/>
<path d="M474.314 275.992C474.314 275.992 476.272 271.582 473.817 270.164C471.082 268.584 469.205 273.584 469.205 273.584" stroke="#333333" stroke-width="2" stroke-linecap="round"/>
<path d="M566.757 229.717C566.757 229.717 570.66 232.554 572.562 230.452C574.681 228.111 570.184 225.231 570.184 225.231" stroke="#333333" stroke-width="2" stroke-linecap="round"/>
<path d="M553.07 227.41C553.07 227.41 548.826 224.4 546.907 226.495C544.77 228.828 549.642 231.9 549.642 231.9" stroke="#333333" stroke-width="2" stroke-linecap="round"/>
<path d="M572.404 206.768C572.404 206.768 571.73 211.835 574.48 212.542C577.545 213.331 577.979 207.69 577.979 207.69" stroke="#333333" stroke-width="2" stroke-linecap="round"/>
</svg>
