<svg width="23" height="23" viewBox="0 0 23 23" fill="none" xmlns="http://www.w3.org/2000/svg">
<path fill-rule="evenodd" clip-rule="evenodd" d="M11.2782 0.5C5.04701 0.5 0 5.54701 0 11.7782C0 16.7688 3.22839 20.9841 7.71149 22.4785C8.2754 22.5771 8.48687 22.2388 8.48687 21.9427C8.48687 21.6749 8.47277 20.7867 8.47277 19.8422C5.63912 20.3638 4.90603 19.1514 4.68047 18.517C4.55359 18.1927 4.00377 17.1918 3.52445 16.9239C3.12971 16.7125 2.5658 16.1908 3.51035 16.1767C4.39851 16.1626 5.03291 16.9944 5.24438 17.3328C6.25942 19.0386 7.88067 18.5593 8.52916 18.2632C8.62785 17.5301 8.9239 17.0367 9.24815 16.7548C6.73874 16.4728 4.11656 15.5 4.11656 11.1861C4.11656 9.95962 4.55359 8.94458 5.27257 8.1551C5.15979 7.87314 4.76505 6.71712 5.38536 5.16637C5.38536 5.16637 6.32991 4.87032 8.48687 6.32239C9.38913 6.06863 10.3478 5.94175 11.3064 5.94175C12.2651 5.94175 13.2237 6.06863 14.126 6.32239C16.2829 4.85622 17.2275 5.16637 17.2275 5.16637C17.8478 6.71712 17.4531 7.87314 17.3403 8.1551C18.0593 8.94458 18.4963 9.94552 18.4963 11.1861C18.4963 15.5141 15.86 16.4728 13.3506 16.7548C13.7594 17.1072 14.1119 17.7839 14.1119 18.8412C14.1119 20.3497 14.0978 21.5621 14.0978 21.9427C14.0978 22.2388 14.3093 22.5912 14.8732 22.4785C19.3281 20.9841 22.5565 16.7548 22.5565 11.7782C22.5565 5.54701 17.5095 0.5 11.2782 0.5Z" fill="#333333"/>
</svg>
