<svg width="100" height="85.7" viewBox="0 0 356 305" fill="none" xmlns="http://www.w3.org/2000/svg">
<path fill-rule="evenodd" clip-rule="evenodd" d="M26.9243 174.314L19.0008 190.161C18.702 190.759 19.0622 191.476 19.7202 191.593L46.6024 196.372C46.8316 196.413 47.0321 196.524 47.1816 196.702C49.562 199.546 70.2116 224.534 77.4157 244.027C80.6083 252.665 83.2555 265.894 84.1074 270.39C84.2446 271.114 85.0889 271.448 85.6867 271.018L99.6954 260.931C100.035 260.687 100.186 260.258 100.075 259.855L93.4586 235.794C93.3504 235.401 93.4922 234.981 93.8168 234.734L106.022 225.434C106.302 225.221 106.712 225.354 106.816 225.69C108.185 230.102 116.171 253.904 129.449 254.814C141.389 255.633 152.794 237.61 155.498 233.021C155.725 232.636 156.321 232.693 156.46 233.118C157.974 237.739 164.227 254.856 174.502 257.352C187.725 260.565 201.027 237.969 203.801 232.946C204.01 232.566 204.57 232.619 204.722 233.025L208.037 241.864C208.1 242.034 208.117 242.217 208.084 242.394L205.996 253.88C205.841 254.731 206.748 255.368 207.48 254.906C219.576 247.283 285.663 204.562 280.473 184.379C276.205 167.78 252.697 162.248 229.796 156.859C226.564 156.098 223.343 155.34 220.19 154.554C213.047 152.774 202.223 151.239 199.341 150.845C198.906 150.785 198.491 151.021 198.309 151.421L195.931 156.654C195.675 157.216 194.979 157.421 194.456 157.093C191.191 155.047 180.502 148.757 172.599 148.844C165.807 148.918 163.257 154.807 160.646 160.838C158.136 166.636 155.569 172.566 149.12 173.591C147.841 173.795 145.55 171.63 142.568 168.814C136.677 163.248 128.09 155.137 119.296 157.727C109.542 160.601 97.0869 178.668 97.0869 178.668L63.3483 181.792C63.0184 181.822 62.6948 181.687 62.4842 181.432L54.6687 171.941C54.2823 171.472 53.5703 171.453 53.1596 171.901L47.3627 178.225C47.1131 178.498 46.7335 178.61 46.3757 178.518L28.0686 173.793C27.6121 173.675 27.1352 173.893 26.9243 174.314ZM165.011 180.721C165.168 178.377 166.143 168.283 171.33 167.246C177.675 165.976 191.374 185.248 194.174 200.877C196.667 214.798 194.174 234.508 187.194 236.412C178.623 238.75 170.695 212.299 170.695 209.761C170.695 208.372 171.059 206.655 171.469 204.723C171.996 202.236 172.599 199.393 172.599 196.435C172.599 188.725 166.864 182.927 165.348 181.529C165.12 181.319 164.991 181.03 165.011 180.721ZM116.758 179.302C114.854 180.54 117.858 198.571 122.469 209.761C126.894 220.5 135.947 235.515 138.967 234.508C144.678 232.605 146.016 212.984 140.871 200.877C135.929 189.248 119.686 177.398 116.758 179.302ZM100.184 210.167L88.0522 217.099C87.7515 217.271 87.3859 217.27 87.1153 217.054C86.3435 216.438 84.6464 214.8 82.4921 211.03C80.2601 207.124 76.3736 201.216 74.5739 198.512C74.1468 197.871 74.5687 197.001 75.3371 196.94C77.8043 196.744 82.3979 196.337 85.6649 195.8C88.2553 195.375 90.6859 194.769 92.833 194.233L92.8331 194.233C93.9983 193.943 95.0799 193.673 96.0583 193.464C96.6169 193.345 97.1485 193.736 97.229 194.301C97.5039 196.232 98.1557 200.447 98.9906 203.415C99.7306 206.046 100.327 207.98 100.644 208.983C100.788 209.437 100.597 209.93 100.184 210.167ZM212.192 172.703L224.887 224.086C225.063 224.8 225.932 225.079 226.5 224.612C250.436 204.938 262.695 193.822 262.071 189.455C261.595 186.125 259.216 180.742 257.095 178.154C257.028 178.072 256.954 178.008 256.864 177.953C248.913 173.182 223.241 170.015 212.969 171.512C212.405 171.594 212.055 172.149 212.192 172.703Z" fill="#333333"/>
<path d="M20.9403 266.236C26.6513 266.87 16.431 293.759 19.0366 293.522C26.0167 292.887 27.7648 285.943 32.3623 280.196C37.4387 273.851 31.7277 257.987 34.9005 256.083C38.0733 254.179 41.8806 264.967 55.2062 265.601C59.0617 265.785 55.5964 262.211 57.1099 259.89C59.4232 256.343 64.7286 259.476 67.2628 256.083C71.9525 249.805 50.1298 249.103 50.1298 245.296C50.1298 244.019 69.7445 245.93 67.2628 235.777C65.5523 228.78 48.4849 235.777 47.5916 234.508C46.2516 232.604 61.5538 221.248 55.8408 216.106C49.4952 210.395 38.1131 230.552 33.6314 229.432C28.5549 228.163 20.969 209.126 16.4984 209.126C11.422 209.126 5.07644 219.279 6.34554 225.624C7.7369 232.581 15.8639 239.585 13.9602 242.757C13.3256 243.815 7.61465 240.219 3.80733 239.585C1.55055 239.208 6.6216e-05 249.471 0 256.083C-2.54176e-05 258.621 10.7874 254.179 12.0565 256.083C13.5078 258.26 1.26911 263.698 5.71099 276.389C7.61465 281.828 19.6712 266.095 20.9403 266.236Z" fill="#333333"/>
<path d="M47.3871 109.992C44.4089 117.148 43.1861 120.359 43.1505 127.575C43.1495 127.773 43.2626 127.954 43.4412 128.039C44.8722 128.719 51.3909 131.999 59.0135 138.691C69.2145 147.646 89.0383 169.832 94.0238 175.453C94.5389 176.034 95.4846 175.826 95.7222 175.087L100.734 159.494C100.834 159.182 100.776 158.841 100.576 158.582C99.7023 157.445 97.2337 154.257 95.8177 152.651C94.5507 151.214 93.0795 149.791 92.1886 148.956C92.0261 148.804 92.1894 148.551 92.3918 148.644C92.9028 148.88 93.5 149.182 93.914 149.478C94.4852 149.886 95.6802 150.582 96.4296 151.01C96.8177 151.232 97.3055 151.164 97.6189 150.845C102.252 146.135 105.394 142.001 111.731 138.964C112.085 138.794 112.315 138.439 112.31 138.046C112.289 136.289 112.184 131.319 111.682 127.903C111.203 124.649 109.949 119.985 109.403 118.032C109.345 117.823 109.609 117.682 109.746 117.851C111.289 119.756 115.485 125.081 118.662 130.441C122.019 136.107 127.879 149.465 129.597 153.428C129.85 154.01 130.572 154.213 131.092 153.849L142.775 145.671L145.131 152.151C145.245 152.464 145.506 152.699 145.829 152.78L157.02 155.578C157.561 155.713 158.109 155.379 158.235 154.836C160.541 144.89 161.156 139.802 161.176 129.707C161.177 129.522 161.405 129.43 161.529 129.567C162.367 130.496 164.538 132.849 166.253 134.249C167.916 135.606 170.577 137.23 171.572 137.824C171.822 137.973 172.122 138.002 172.397 137.907L189.994 131.839C190.233 131.757 190.43 131.59 190.548 131.366C191.254 130.025 193.849 125.065 195.443 121.558C196.959 118.221 198.113 112.302 198.487 110.237C198.523 110.035 198.795 110.014 198.859 110.208C199.413 111.889 200.795 116.509 201.788 123.461C202.887 131.153 205.413 151.686 206.071 157.06C206.152 157.719 206.839 158.106 207.451 157.848L217.64 153.558C218.028 153.394 218.274 153.031 218.251 152.611C217.963 147.365 215.933 112.723 211.307 90.4646C206.767 68.6226 198.209 35.8784 196.886 30.8419C196.798 30.5082 196.413 30.3859 196.127 30.5803L183.009 39.5247C182.851 39.6321 182.768 39.8132 182.794 40.0021C183.175 42.7921 185.987 64.2942 184.021 78.408C181.914 93.5244 182.752 110.77 176.406 114.578C171.394 117.585 152.826 103.163 143.409 93.0028C135.056 83.9901 126.044 68.9971 124.114 65.7254C123.932 65.4165 123.498 65.4027 123.286 65.6922C119.825 70.4209 118.558 73.5637 116.123 79.0426C116.123 79.0426 123.757 91.4731 127.545 99.9829C132.422 110.936 137.064 129.172 137.064 129.172C137.064 129.172 117.197 85.4929 109.143 68.8897C102.402 54.9914 98.0539 46.5756 96.8162 44.2024C96.6466 43.8771 96.198 43.8468 95.9792 44.1413C92.5429 48.7663 90.5993 51.8039 85.9312 55.3626C85.7712 55.4846 85.6935 55.6792 85.7418 55.8744C86.3794 58.4544 90.8074 76.5623 92.6449 89.1954C94.6274 102.825 98.3559 122.827 95.8177 125.365C93.2795 127.903 81.4931 122.876 71.7046 119.654C62.9624 116.777 50.602 110.941 48.0595 109.726C47.8004 109.602 47.4975 109.727 47.3871 109.992Z" fill="#333333"/>
<path fill-rule="evenodd" clip-rule="evenodd" d="M90.1069 0.798628C82.1335 3.62111 74.8777 11.145 74.8774 16.2214C74.8772 21.2978 79.7718 26.6457 82.4923 28.2779C88.8381 32.0852 114.22 31.4507 130.084 30.1816C139.574 29.4224 144.044 20.0289 147.217 12.4141C150.39 4.79925 135.795 0.798615 131.353 0.798651C129.006 0.79867 125.11 0.656044 120.612 0.491332C109.143 0.0714083 93.7531 -0.492066 90.1069 0.798628ZM96.4523 11.1451C93.458 11.1451 89.4721 11.3236 89.4722 14.3179C89.4722 16.8561 99.6251 17.4907 105.971 17.4907C112.316 17.4907 123.104 16.2216 123.104 14.9525C123.104 13.71 116.155 12.5976 111.353 11.8286C111.25 11.8122 111.148 11.7958 111.047 11.7797C107.24 11.1697 100.26 11.1452 96.4523 11.1451Z" fill="#333333"/>
<path d="M286.184 191.993C298.067 181.191 320.041 170.985 324.66 168.901C325.03 168.734 325.051 168.226 324.705 168.014C321.976 166.345 313.046 160.822 307.124 156.458C300.979 151.93 292.076 144.232 289.867 142.309C289.557 142.039 289.448 141.612 289.596 141.228C290.209 139.641 291.919 135.453 293.799 132.98C295.647 130.547 299.289 127.63 300.767 126.49C301.142 126.201 301.665 126.224 302.02 126.537C304.815 129.002 316.713 139.372 326.161 145.671C336.941 152.857 356.62 158.362 355.985 164.707C355.58 168.756 330.631 183.302 317.277 187.551C305.096 191.427 296.78 195.786 294.858 196.834C294.588 196.982 294.408 197.245 294.367 197.551C294.204 198.758 293.799 201.971 293.799 204.05C293.799 205.76 294.073 207.964 294.261 209.274C294.346 209.87 293.901 210.417 293.299 210.443L280.245 210.986C279.677 211.01 279.209 210.563 279.24 209.995C279.411 206.841 280.408 197.244 286.184 191.993Z" fill="#333333"/>
<path fill-rule="evenodd" clip-rule="evenodd" d="M290.626 217.375C287.222 221.752 281.469 239.395 283.646 253.545C284.915 261.794 290.49 267.351 298.875 268.774C307.261 270.197 327.953 248.468 328.699 235.777C329.334 224.99 320.45 207.222 307.759 207.222C299.981 207.222 295.068 211.664 290.626 217.375ZM301.529 227.545C301.567 226.563 301.603 225.624 300.144 225.624C298.241 225.624 298.241 236.412 299.51 240.219C300.84 244.209 303.952 247.834 307.124 247.834C309.663 247.834 312.52 245.924 313.47 242.123C314.469 238.128 308.024 233.619 303.486 230.444C302.978 230.089 302.495 229.751 302.048 229.432C301.473 229.021 301.501 228.271 301.529 227.545Z" fill="#333333"/>
<path d="M88.8376 279.99V292.704C88.8376 293.405 89.5535 293.883 90.208 293.633C124.127 280.653 138.802 274.039 173.868 274.485C200.354 274.822 223.998 280.83 239.227 287.811C241.765 288.974 257.123 284.79 259.533 275.754C262.24 265.601 208.133 255.467 173.868 256.083C139.263 256.705 103.322 266.098 89.144 279.273C88.9438 279.459 88.8376 279.716 88.8376 279.99Z" fill="#333333"/>
<path d="M138.333 284.638C133.256 287.176 130.718 304.944 131.987 304.944C134.526 304.944 138.967 301.137 144.044 301.137C157.43 301.137 172.599 299.868 179.579 299.868C183.439 299.868 187.828 291.618 184.655 284.638C182.974 280.939 170.854 280.978 161.811 280.831C151.789 280.668 142.14 282.734 138.333 284.638Z" fill="#333333"/>
</svg>
