<svg width="23" height="23" viewBox="0 0 23 23" fill="none" xmlns="http://www.w3.org/2000/svg">
<path d="M11.1733 0.5C5.17325 0.5 0.3125 5.42374 0.3125 11.5C0.3125 17.5763 5.17395 22.5 11.1733 22.5C17.1734 22.5 22.0342 17.5763 22.0342 11.5C22.0342 5.42374 17.1727 0.5 11.1733 0.5ZM16.5078 8.03606L14.7252 16.5437C14.5935 17.1469 14.2389 17.2931 13.7442 17.0092L11.029 14.9824L9.71939 16.2598C9.57505 16.406 9.45243 16.5302 9.17215 16.5302L9.36484 13.7312L14.3966 9.12684C14.6159 8.93168 14.3482 8.82097 14.0588 9.01613L7.84012 12.9811L5.15994 12.1337C4.57766 11.9478 4.56435 11.544 5.28256 11.2601L15.7538 7.17026C16.2401 6.99284 16.6647 7.29019 16.5071 8.03535L16.5078 8.03606Z" fill="#333333"/>
</svg>
